<mxfile host="app.diagrams.net" modified="2023-07-31T16:56:38.740Z" agent="Mozilla/5.0 (Windows NT 10.0; Win64; x64) AppleWebKit/537.36 (KHTML, like Gecko) Chrome/115.0.0.0 Safari/537.36" etag="YQA6-S16tDjUvzksRF3k" version="21.6.5" type="device">
  <diagram id="2BZaPdI9Fvi9BANHu_x6" name="Страница 1">
    <mxGraphModel dx="1290" dy="574" grid="1" gridSize="10" guides="1" tooltips="1" connect="1" arrows="1" fold="1" page="1" pageScale="1" pageWidth="827" pageHeight="1169" math="0" shadow="0">
      <root>
        <mxCell id="0" />
        <mxCell id="1" parent="0" />
        <mxCell id="ynQbFVZgB9Jwk-aaFCgy-1" style="edgeStyle=orthogonalEdgeStyle;rounded=0;orthogonalLoop=1;jettySize=auto;html=1;exitX=0.5;exitY=1;exitDx=0;exitDy=0;entryX=0.5;entryY=0;entryDx=0;entryDy=0;" parent="1" source="ynQbFVZgB9Jwk-aaFCgy-2" target="ynQbFVZgB9Jwk-aaFCgy-17" edge="1">
          <mxGeometry relative="1" as="geometry" />
        </mxCell>
        <mxCell id="ynQbFVZgB9Jwk-aaFCgy-2" value="Begin" style="rounded=1;whiteSpace=wrap;html=1;arcSize=50;" parent="1" vertex="1">
          <mxGeometry x="354" y="20" width="120" height="30" as="geometry" />
        </mxCell>
        <mxCell id="PEGcIIxz7GAoc2MtMVVc-2" style="edgeStyle=orthogonalEdgeStyle;rounded=0;orthogonalLoop=1;jettySize=auto;html=1;exitX=0.5;exitY=1;exitDx=0;exitDy=0;entryX=0.5;entryY=0;entryDx=0;entryDy=0;" edge="1" parent="1" source="ynQbFVZgB9Jwk-aaFCgy-4" target="PEGcIIxz7GAoc2MtMVVc-1">
          <mxGeometry relative="1" as="geometry" />
        </mxCell>
        <mxCell id="ynQbFVZgB9Jwk-aaFCgy-4" value="string message (&quot;Введите количество строк: &quot;)" style="shape=parallelogram;perimeter=parallelogramPerimeter;whiteSpace=wrap;html=1;fixedSize=1;" parent="1" vertex="1">
          <mxGeometry x="269" y="180" width="290" height="70" as="geometry" />
        </mxCell>
        <mxCell id="ynQbFVZgB9Jwk-aaFCgy-7" style="edgeStyle=orthogonalEdgeStyle;rounded=0;orthogonalLoop=1;jettySize=auto;html=1;exitX=0.5;exitY=1;exitDx=0;exitDy=0;entryX=0.5;entryY=0;entryDx=0;entryDy=0;" parent="1" source="ynQbFVZgB9Jwk-aaFCgy-8" target="ynQbFVZgB9Jwk-aaFCgy-13" edge="1">
          <mxGeometry relative="1" as="geometry" />
        </mxCell>
        <mxCell id="ynQbFVZgB9Jwk-aaFCgy-8" value="i = 0" style="rounded=0;whiteSpace=wrap;html=1;" parent="1" vertex="1">
          <mxGeometry x="354" y="585" width="120" height="30" as="geometry" />
        </mxCell>
        <mxCell id="ynQbFVZgB9Jwk-aaFCgy-9" style="edgeStyle=orthogonalEdgeStyle;rounded=0;orthogonalLoop=1;jettySize=auto;html=1;exitX=0.5;exitY=1;exitDx=0;exitDy=0;entryX=0.5;entryY=0;entryDx=0;entryDy=0;" parent="1" source="ynQbFVZgB9Jwk-aaFCgy-13" target="ynQbFVZgB9Jwk-aaFCgy-15" edge="1">
          <mxGeometry relative="1" as="geometry" />
        </mxCell>
        <mxCell id="ynQbFVZgB9Jwk-aaFCgy-10" value="&lt;font style=&quot;font-size: 14px;&quot;&gt;YES&lt;/font&gt;" style="edgeLabel;html=1;align=center;verticalAlign=middle;resizable=0;points=[];" parent="ynQbFVZgB9Jwk-aaFCgy-9" vertex="1" connectable="0">
          <mxGeometry x="-0.2795" y="-3" relative="1" as="geometry">
            <mxPoint x="3" as="offset" />
          </mxGeometry>
        </mxCell>
        <mxCell id="ynQbFVZgB9Jwk-aaFCgy-11" style="edgeStyle=orthogonalEdgeStyle;rounded=0;orthogonalLoop=1;jettySize=auto;html=1;exitX=1;exitY=0.5;exitDx=0;exitDy=0;entryX=0;entryY=0.5;entryDx=0;entryDy=0;" parent="1" source="ynQbFVZgB9Jwk-aaFCgy-13" target="ynQbFVZgB9Jwk-aaFCgy-21" edge="1">
          <mxGeometry relative="1" as="geometry" />
        </mxCell>
        <mxCell id="ynQbFVZgB9Jwk-aaFCgy-12" value="&lt;font style=&quot;font-size: 14px;&quot;&gt;NO&lt;/font&gt;" style="edgeLabel;html=1;align=center;verticalAlign=middle;resizable=0;points=[];" parent="ynQbFVZgB9Jwk-aaFCgy-11" vertex="1" connectable="0">
          <mxGeometry x="-0.1229" y="3" relative="1" as="geometry">
            <mxPoint as="offset" />
          </mxGeometry>
        </mxCell>
        <mxCell id="ynQbFVZgB9Jwk-aaFCgy-13" value="i &amp;lt; arrayWords.Lenght" style="rhombus;whiteSpace=wrap;html=1;" parent="1" vertex="1">
          <mxGeometry x="337" y="655" width="154" height="140" as="geometry" />
        </mxCell>
        <mxCell id="ynQbFVZgB9Jwk-aaFCgy-14" style="edgeStyle=orthogonalEdgeStyle;rounded=0;orthogonalLoop=1;jettySize=auto;html=1;exitX=0.5;exitY=1;exitDx=0;exitDy=0;entryX=0.5;entryY=0;entryDx=0;entryDy=0;" parent="1" source="ynQbFVZgB9Jwk-aaFCgy-15" target="ynQbFVZgB9Jwk-aaFCgy-19" edge="1">
          <mxGeometry relative="1" as="geometry" />
        </mxCell>
        <mxCell id="ynQbFVZgB9Jwk-aaFCgy-15" value="arrayWords[i] = InputWord(&quot;Введите строку: &quot;)&amp;nbsp;" style="shape=parallelogram;perimeter=parallelogramPerimeter;whiteSpace=wrap;html=1;fixedSize=1;" parent="1" vertex="1">
          <mxGeometry x="298" y="875" width="231" height="70" as="geometry" />
        </mxCell>
        <mxCell id="ynQbFVZgB9Jwk-aaFCgy-16" style="edgeStyle=orthogonalEdgeStyle;rounded=0;orthogonalLoop=1;jettySize=auto;html=1;exitX=0.5;exitY=1;exitDx=0;exitDy=0;entryX=0.5;entryY=0;entryDx=0;entryDy=0;" parent="1" source="ynQbFVZgB9Jwk-aaFCgy-17" target="ynQbFVZgB9Jwk-aaFCgy-4" edge="1">
          <mxGeometry relative="1" as="geometry" />
        </mxCell>
        <mxCell id="ynQbFVZgB9Jwk-aaFCgy-17" value="string message" style="rounded=0;whiteSpace=wrap;html=1;" parent="1" vertex="1">
          <mxGeometry x="332" y="80" width="164" height="50" as="geometry" />
        </mxCell>
        <mxCell id="ynQbFVZgB9Jwk-aaFCgy-18" style="edgeStyle=orthogonalEdgeStyle;rounded=0;orthogonalLoop=1;jettySize=auto;html=1;exitX=0;exitY=0.5;exitDx=0;exitDy=0;entryX=0;entryY=0.5;entryDx=0;entryDy=0;" parent="1" source="ynQbFVZgB9Jwk-aaFCgy-19" target="ynQbFVZgB9Jwk-aaFCgy-13" edge="1">
          <mxGeometry relative="1" as="geometry">
            <Array as="points">
              <mxPoint x="230" y="1015" />
              <mxPoint x="230" y="725" />
            </Array>
          </mxGeometry>
        </mxCell>
        <mxCell id="ynQbFVZgB9Jwk-aaFCgy-19" value="i++" style="shape=parallelogram;perimeter=parallelogramPerimeter;whiteSpace=wrap;html=1;fixedSize=1;" parent="1" vertex="1">
          <mxGeometry x="354" y="995" width="120" height="40" as="geometry" />
        </mxCell>
        <mxCell id="ynQbFVZgB9Jwk-aaFCgy-20" style="edgeStyle=orthogonalEdgeStyle;rounded=0;orthogonalLoop=1;jettySize=auto;html=1;exitX=0.5;exitY=1;exitDx=0;exitDy=0;entryX=0.5;entryY=0;entryDx=0;entryDy=0;" parent="1" source="ynQbFVZgB9Jwk-aaFCgy-21" target="ynQbFVZgB9Jwk-aaFCgy-22" edge="1">
          <mxGeometry relative="1" as="geometry" />
        </mxCell>
        <mxCell id="ynQbFVZgB9Jwk-aaFCgy-21" value="return arrayWords" style="shape=parallelogram;perimeter=parallelogramPerimeter;whiteSpace=wrap;html=1;fixedSize=1;" parent="1" vertex="1">
          <mxGeometry x="590" y="695" width="140" height="60" as="geometry" />
        </mxCell>
        <mxCell id="ynQbFVZgB9Jwk-aaFCgy-22" value="END" style="rounded=1;whiteSpace=wrap;html=1;arcSize=50;" parent="1" vertex="1">
          <mxGeometry x="620" y="805" width="80" height="40" as="geometry" />
        </mxCell>
        <mxCell id="PEGcIIxz7GAoc2MtMVVc-5" style="edgeStyle=orthogonalEdgeStyle;rounded=0;orthogonalLoop=1;jettySize=auto;html=1;exitX=0.5;exitY=1;exitDx=0;exitDy=0;entryX=0.5;entryY=0;entryDx=0;entryDy=0;" edge="1" parent="1" source="PEGcIIxz7GAoc2MtMVVc-1" target="PEGcIIxz7GAoc2MtMVVc-4">
          <mxGeometry relative="1" as="geometry" />
        </mxCell>
        <mxCell id="PEGcIIxz7GAoc2MtMVVc-1" value="int count = int(input Console)" style="rounded=0;whiteSpace=wrap;html=1;" vertex="1" parent="1">
          <mxGeometry x="324" y="320" width="180" height="60" as="geometry" />
        </mxCell>
        <mxCell id="PEGcIIxz7GAoc2MtMVVc-6" style="edgeStyle=orthogonalEdgeStyle;rounded=0;orthogonalLoop=1;jettySize=auto;html=1;exitX=0.5;exitY=1;exitDx=0;exitDy=0;entryX=0.5;entryY=0;entryDx=0;entryDy=0;" edge="1" parent="1" source="PEGcIIxz7GAoc2MtMVVc-4" target="ynQbFVZgB9Jwk-aaFCgy-8">
          <mxGeometry relative="1" as="geometry" />
        </mxCell>
        <mxCell id="PEGcIIxz7GAoc2MtMVVc-4" value="string[] arrayWords = new string [count]" style="rounded=0;whiteSpace=wrap;html=1;" vertex="1" parent="1">
          <mxGeometry x="305" y="450" width="218" height="60" as="geometry" />
        </mxCell>
      </root>
    </mxGraphModel>
  </diagram>
</mxfile>
